# xmcd
#
# Track frame offsets: 
#        150
#        10935
#        26200
#        36450
#        57050
#        72600
#        83530
#        96935
#        109250
#        122175
#        134650
#        145875
#        158605
#        172555
#        185000
#        198500
#        208620
#        223630
#        238220
#
# Disc length: 3538 seconds
#
# Revision: 4
# Processed by: cddbd v1.5.2PL0 Copyright (c) Steve Scherf et al.
# Submitted via: ExactAudioCopy v0.99pb4
#
DISCID=1a0dd013
DTITLE=The Paul Butterfield Blues Band - The Original Lost Elektra Ses
DTITLE=sions
DYEAR=1995
DGENRE=Blues-Rock
TTITLE0=Good Morning Little School Girl
TTITLE1=Just To Be With You
TTITLE2=Help Me
TTITLE3=Hate To See You Go
TTITLE4=Poor Boy
TTITLE5=Nut Popper #1
TTITLE6=Everything's Gonna Be All Right
TTITLE7=Lovin' Cup
TTITLE8=Rock Me
TTITLE9=It Hurts Me Too
TTITLE10=Our Love Is Driftin'
TTITLE11=Take Me Back Baby
TTITLE12=Mellow Down Easy
TTITLE13=Ain't No Need To Go No Further
TTITLE14=Love Her With A Feeling
TTITLE15=Piney Brown Blues
TTITLE16=Spoonful
TTITLE17=That's All Right
TTITLE18=Goin' Down Slow
EXTD=YEAR: 1995
EXTT0=
EXTT1=
EXTT2=
EXTT3=
EXTT4=
EXTT5=
EXTT6=
EXTT7=
EXTT8=
EXTT9=
EXTT10=
EXTT11=
EXTT12=
EXTT13=
EXTT14=
EXTT15=
EXTT16=
EXTT17=
EXTT18=
PLAYORDER=
